# xmcd
#
# Track frame offsets:
#	150
#	10486
#	24036
#	36489
#	48361
#	60402
#	74444
#	85393
#	96686
#	106326
#	118876
#	131219
#	143696
#	154104
#	165409
#	178592
#	188772
#	200390
#	213476
#	224590
#	235907
#	247369
#	260632
#	272087
#	282267
#
# Disc length: 3919 seconds
#
# Revision: 1
# Processed by: cddbd v1.5.2PL0 Copyright (c) Steve Scherf et al.
# Submitted via: audiograbber 1.83.01
#
DISCID=830f4d19
DTITLE=Verschiedene - Historic Country and Western CD 02
DYEAR=1900
DGENRE=Country
TTITLE0=Lefty Fritzell - Give Me More More More Of Your Kisses
TTITLE1=Pee Wee King - Slow Poke
TTITLE2=Porter Wagoner - A Satisfied Mind
TTITLE3=Kitty Wells - It Wasn't God Who Made Honky Tonk Angels
TTITLE4=Marty Robbins - I'll Go On Alone
TTITLE5=Rex Allen - Crying In The Chapel
TTITLE6=The Carlisles - No Help Wanted
TTITLE7=Ferli Kusky and Jean Shepherd - A Dear John Letter
TTITLE8=Frankie Lane and Paul Weston Ang His Orchestra And Chorus - I Believe
TTITLE9=Jim Reeves - Bimbo
TTITLE10=Skeets Mcdonald - Don't Let The Stars Get In Your Eyes
TTITLE11=Slim Whitman - Secret Love
TTITLE12=Webb Pierce - It's Been So Long
TTITLE13=Jim Reeves and Ginny Wright - I Love You
TTITLE14=Hank Snow - I Don't Hurt Anymore
TTITLE15=Hank Thompson - Wake Up Irene
TTITLE16=Eddy Arnold - I Really Don't Want To Know
TTITLE17=Kitty Wells and Red Foley - One By One
TTITLE18=Tommy Collins - You Better Not Do That
TTITLE19=Faron Young - Forgive Me Dear
TTITLE20=Carl Smith - Loose Talk
TTITLE21=George Morgan - Almost
TTITLE22=Red Foley and Kitty Wells - As Long As I Live
TTITLE23=George Jones - Why Baby Why
TTITLE24=Tennessee Ernie Ford - Sixteen Tons
EXTD=
EXTT0=
EXTT1=
EXTT2=
EXTT3=
EXTT4=
EXTT5=
EXTT6=
EXTT7=
EXTT8=
EXTT9=
EXTT10=
EXTT11=
EXTT12=
EXTT13=
EXTT14=
EXTT15=
EXTT16=
EXTT17=
EXTT18=
EXTT19=
EXTT20=
EXTT21=
EXTT22=
EXTT23=
EXTT24=
PLAYORDER=
